<?xml version="1.0" encoding="UTF-8"?>
<svg width="24px" height="24px" viewBox="0 0 24 24" version="1.1" xmlns="http://www.w3.org/2000/svg">
    <path d="M12,4 C12.5522847,4 13,4.44771525 13,5 L13,14.5857864 L15.2928932,12.2928932 C15.6834175,11.9023689 16.3165825,11.9023689 16.7071068,12.2928932 C17.0976311,12.6834175 17.0976311,13.3165825 16.7071068,13.7071068 L12.7071068,17.7071068 C12.3165825,18.0976311 11.6834175,18.0976311 11.2928932,17.7071068 L7.29289322,13.7071068 C6.90236893,13.3165825 6.90236893,12.6834175 7.29289322,12.2928932 C7.68341751,11.9023689 8.31658249,11.9023689 8.70710678,12.2928932 L11,14.5857864 L11,5 C11,4.44771525 11.4477153,4 12,4 Z M5,20 L19,20 C19.5522847,20 20,20.4477153 20,21 C20,21.5522847 19.5522847,22 19,22 L5,22 C4.44771525,22 4,21.5522847 4,21 C4,20.4477153 4.44771525,20 5,20 Z" fill="#f1f3f4"/>
</svg>
