<?xml version="1.0" encoding="UTF-8"?>
<svg width="24px" height="24px" viewBox="0 0 24 24" version="1.1" xmlns="http://www.w3.org/2000/svg">
    <path d="M13,3 C17.9705627,3 22,7.02943725 22,12 C22,16.9705627 17.9705627,21 13,21 C10.2141945,21 7.70299058,19.7176079 6,17.6581979 L6,19 C6,19.5522847 5.55228475,20 5,20 C4.44771525,20 4,19.5522847 4,19 L4,14 C4,13.4477153 4.44771525,13 5,13 L10,13 C10.5522847,13 11,13.4477153 11,14 C11,14.5522847 10.5522847,15 10,15 L7.30585891,15 C8.63897135,17.3304511 10.6696509,19 13,19 C16.8659932,19 20,15.8659932 20,12 C20,8.13400675 16.8659932,5 13,5 C10.7024973,5 8.60239452,6.21482067 7.26134498,8.04587431 C6.94840699,8.46447797 6.3617964,8.55133095 5.94319274,8.23839297 C5.52458908,7.92545498 5.4377361,7.33884438 5.75067408,6.92024073 C7.46251156,4.61026741 10.1129135,3 13,3 Z M12,8 C12.5522847,8 13,8.44771525 13,9 L13,12.5857864 L15.2928932,14.8786797 C15.6834175,15.269204 15.6834175,15.902369 15.2928932,16.2928932 C14.9023689,16.6834175 14.269204,16.6834175 13.8786797,16.2928932 L11.2928932,13.7071068 C11.1054232,13.5196368 11,13.2652165 11,13 L11,9 C11,8.44771525 11.4477153,8 12,8 Z" fill="#f1f3f4"/>
</svg>
