<?xml version="1.0" encoding="UTF-8"?>
<svg width="24px" height="24px" viewBox="0 0 24 24" version="1.1" xmlns="http://www.w3.org/2000/svg">
    <path d="M12,2 L6.5,9 L17.5,9 L12,2 Z M4.09,11 L2.5,15 L6,15 L7,11 L4.09,11 Z M17,11 L18,15 L21.5,15 L19.91,11 L17,11 Z M10.03,11 C8.9,11 8,11.9 8,13.03 C8,14.12 8.88,15 9.97,15 C10.4256,15 10.817,14.842 11.13,14.57 C11.443,14.842 11.8344,15 12.29,15 C12.8956,15 13.373,14.607 13.657,14.033 C13.873,14.355 14.251,14.55 14.64,14.55 C15.07,14.55 15.66,14.245 15.79,13.43 C15.4,12.65 14.62,12 13.69,12 C13.2144,12 12.783,12.158 12.47,12.43 C12.157,12.158 11.7656,12 11.31,12 C11.11,12 10.92,12.03 10.74,12.08 C10.93,11.58 11.4,11.19 11.97,11.06 C11.966,11.039 11.961,11.019 11.958,11.001 L10.03,11 Z M18,7 L17.97,7 L13.93,7 L16.5,3.5 L18,7 Z M7.5,3.5 L10.02,6.94 L5.97,7 L6,7 L7.5,3.5 Z" fill="#f1f3f4"/>
</svg>
