<?xml version="1.0" encoding="UTF-8"?>
<svg width="24px" height="24px" viewBox="0 0 24 24" version="1.1" xmlns="http://www.w3.org/2000/svg">
    <path d="M21,4 L3,4 C2.45,4 2,4.45 2,5 L2,15 C2,15.55 2.45,16 3,16 L7,16 L7,18.5 C7,19.33 7.67,20 8.5,20 L15.5,20 C16.33,20 17,19.33 17,18.5 L17,16 L21,16 C21.55,16 22,15.55 22,15 L22,5 C22,4.45 21.55,4 21,4 Z M15,18.5 C15,18.22 14.78,18 14.5,18 L9.5,18 C9.22,18 9,18.22 9,18.5 L9,16 L15,16 L15,18.5 Z M20,15 L4,15 L4,6 L20,6 L20,15 Z M6,11 L18,11 C18.55,11 19,10.55 19,10 C19,9.45 18.55,9 18,9 L6,9 C5.45,9 5,9.45 5,10 C5,10.55 5.45,11 6,11 Z M6,8 L12,8 C12.55,8 13,7.55 13,7 C13,6.45 12.55,6 12,6 L6,6 C5.45,6 5,6.45 5,7 C5,7.55 5.45,8 6,8 Z M6,14 L18,14 C18.55,14 19,13.55 19,13 C19,12.45 18.55,12 18,12 L6,12 C5.45,12 5,12.45 5,13 C5,13.55 5.45,14 6,14 Z" fill="#f1f3f4"/>
</svg>
