<?xml version="1.0" encoding="UTF-8"?>
<svg width="24px" height="24px" viewBox="0 0 24 24" version="1.1" xmlns="http://www.w3.org/2000/svg">
    <path d="M17.6500003,6.35000026 C16.2000003,4.9 14.2100003,4 12.0000003,4 C7.60000026,4 4.00000026,7.60000026 4.00000026,12.0000003 C4.00000026,16.4 7.60000026,20 12.0000003,20 C15.7300003,20 18.8400003,17.45 19.7300003,14 L17.6500003,14 C16.8300003,16.33 14.6100003,18 12.0000003,18 C8.69000026,18 6.00000026,15.31 6.00000026,12.0000003 C6.00000026,8.69000026 8.69000026,6.00000026 12.0000003,6.00000026 C13.6600003,6.00000026 15.1400003,6.69000026 16.2200003,7.78000026 L13.0000003,11 L20.0000003,11 L20.0000003,4.00000026 L17.6500003,6.35000026 Z" fill="#f1f3f4"/>
</svg>
