<?xml version="1.0" encoding="UTF-8"?>
<svg width="24px" height="24px" viewBox="0 0 24 24" version="1.1" xmlns="http://www.w3.org/2000/svg">
    <path d="M17,1.01 L7,1 C5.9,1 5,1.9 5,3 L5,21 C5,22.1 5.9,23 7,23 L17,23 C18.1,23 19,22.1 19,21 L19,3 C19,1.9 18.1,1.01 17,1.01 Z M17,19 L7,19 L7,5 L17,5 L17,19 Z M9.5,14 C9.5,13.17 10.17,12.5 11,12.5 C11.83,12.5 12.5,13.17 12.5,14 C12.5,14.83 11.83,15.5 11,15.5 C10.17,15.5 9.5,14.83 9.5,14 Z M13.5,16.5 L13.5,17.5 L8.5,17.5 L8.5,16.5 C8.5,15.67 10.17,15 11,15 C11.83,15 13.5,15.67 13.5,16.5 Z M13,8 L16,8 L16,12 L13,12 L13,8 Z" fill="#f1f3f4"/>
</svg>
