<?xml version="1.0" encoding="UTF-8"?>
<svg width="24px" height="24px" viewBox="0 0 24 24" version="1.1" xmlns="http://www.w3.org/2000/svg">
    <path d="M11.9975,2 L5,5.0004 L5,11.0013 C5,14.8688 7.977,18.4156 11.9975,19.9999 C16.0175,18.4156 18.995,14.8688 18.995,11.0013 L18.995,5.0004 L11.9975,2 Z M17,11.0013 C17,14.0742 14.75,16.8401 11.9975,18.1559 C9.245,16.8401 7,14.0742 7,11.0013 L7,6.3336 L11.9975,4.0002 L17,6.3336 L17,11.0013 Z M8.4975,11.0013 L10.4985,13.0022 L15.4975,8.0007 L14.0895,6.5767 L10.4985,10.1543 L9.9055,9.5593 L8.4975,11.0013 Z" fill="#f1f3f4"/>
</svg>
