<?xml version="1.0" encoding="UTF-8"?>
<svg width="24px" height="24px" viewBox="0 0 24 24" version="1.1" xmlns="http://www.w3.org/2000/svg">
    <path d="M13.8,20.2 L10.2,20.2 C9.77,20.2 9.4,19.93 9.3,19.53 L9,18.33 C8.65,18.18 8.35,18.01 8.05,17.81 L6.86,18.1 C6.46,18.2 6.05,18.01 5.86,17.63 L4.06,14.37 C3.86,14 3.95,13.56 4.32,13.29 L5.31,12.59 C5.29,12.39 5.28,12.19 5.28,12 C5.28,11.81 5.29,11.61 5.31,11.41 L4.32,10.71 C3.95,10.44 3.86,10 4.06,9.64 L5.87,6.38 C6.06,6 6.46,5.81 6.86,5.91 L8.05,6.2 C8.35,6 8.66,5.82 9,5.67 L9.3,4.47 C9.4,4.07 9.77,3.8 10.2,3.8 L13.8,3.8 C14.23,3.8 14.6,4.07 14.7,4.47 L15,5.67 C15.35,5.82 15.66,6 15.95,6.2 L17.14,5.91 C17.54,5.81 17.95,6 18.14,6.38 L19.94,9.64 C20.14,10.01 20.05,10.45 19.68,10.72 L18.69,11.42 C18.71,11.62 18.72,11.82 18.72,12.01 C18.72,12.2 18.71,12.4 18.69,12.6 L19.68,13.3 C20.05,13.57 20.14,14.01 19.94,14.38 L18.13,17.64 C17.94,18.02 17.54,18.21 17.14,18.11 L15.95,17.82 C15.65,18.02 15.34,18.2 15,18.35 L14.7,19.55 C14.6,19.93 14.23,20.2 13.8,20.2 Z M12,15 C13.6568542,15 15,13.6568542 15,12 C15,10.3431458 13.6568542,9 12,9 C10.3431458,9 9,10.3431458 9,12 C9,13.6568542 10.3431458,15 12,15 Z" fill="#f1f3f4"/>
</svg>
